<?xml version="1.0" standalone="no"?>
<!DOCTYPE svg PUBLIC "-//W3C//DTD SVG 20010904//EN"
 "http://www.w3.org/TR/2001/REC-SVG-20010904/DTD/svg10.dtd">
<svg version="1.0" xmlns="http://www.w3.org/2000/svg"
 width="500.000000pt" height="500.000000pt" viewBox="0 0 500.000000 500.000000"
 preserveAspectRatio="xMidYMid meet">
<metadata>
Created by potrace 1.11, written by Peter Selinger 2001-2013
</metadata>
<g transform="translate(0.000000,500.000000) scale(0.100000,-0.100000)"
fill="#000000" stroke="none">
<path d="M2810 2896 c-19 -8 -51 -19 -70 -26 -68 -25 -66 -37 4 -21 l39 9 -7
-56 c-10 -87 -16 -102 -42 -108 -29 -8 -32 -24 -3 -24 19 0 20 -4 13 -47 -4
-27 -14 -85 -24 -131 -9 -45 -13 -79 -9 -75 4 5 20 65 35 135 21 96 32 128 45
131 13 4 16 -1 14 -22 -10 -96 -19 -148 -26 -162 -6 -11 -4 -21 6 -29 9 -7 17
-11 18 -9 2 2 14 28 27 56 40 89 46 91 132 43 80 -46 123 -52 164 -25 34 22
28 26 -27 14 -43 -9 -52 -7 -119 25 -41 20 -75 38 -78 41 -3 2 12 23 32 45 20
22 36 45 36 50 0 21 -25 8 -57 -30 -19 -22 -38 -40 -41 -40 -4 1 -18 10 -31
20 -30 26 -19 39 49 64 33 12 47 21 40 26 -7 4 -44 -3 -81 -15 l-69 -24 6 27
c12 57 14 59 37 55 32 -6 83 15 69 29 -7 7 -20 7 -43 -1 -46 -16 -51 -14 -47
16 2 22 10 30 42 38 22 7 42 17 44 23 5 16 -34 15 -78 -2z m38 -259 c8 -10 6
-16 -9 -25 -17 -11 -19 -9 -19 13 0 27 12 32 28 12z m-14 -62 c-4 -8 -10 -15
-15 -15 -5 0 -9 7 -9 15 0 8 7 15 15 15 9 0 12 -6 9 -15z"/>
<path d="M2089 2822 c6 -11 11 -34 11 -50 0 -23 -6 -32 -29 -42 -16 -6 -44
-23 -62 -36 -27 -19 -29 -25 -15 -30 9 -3 37 0 61 8 45 15 45 15 45 -8 0 -14
-9 -28 -22 -35 -12 -6 -33 -22 -47 -35 -14 -13 -30 -24 -34 -24 -14 0 -37 -27
-37 -44 0 -30 19 -25 59 16 l42 41 17 -33 c9 -19 22 -35 28 -37 15 -5 26 40
18 72 -4 16 1 36 15 58 25 40 27 54 6 37 -13 -11 -15 -5 -15 46 0 61 -15 104
-38 112 -11 3 -12 0 -3 -16z m11 -234 c0 -16 -3 -19 -11 -11 -6 6 -8 16 -5 22
11 17 16 13 16 -11z"/>
<path d="M2202 2739 c-2 -74 1 -92 24 -138 29 -58 77 -96 137 -106 40 -8 43
-5 25 28 -7 12 -22 60 -34 107 l-22 85 5 -77 c3 -42 3 -84 0 -93 -6 -14 -9
-14 -36 0 -27 14 -82 89 -81 111 1 11 85 74 99 74 14 0 33 38 26 50 -8 12 -45
13 -45 1 0 -4 -19 -30 -42 -57 l-43 -48 -6 75 -5 74 -2 -86z"/>
</g>
</svg>
